<svg width="192" height="128" viewBox="0 0 192 128" fill="none" xmlns="http://www.w3.org/2000/svg">
<path d="M152.143 72.5727C152.23 72.8201 152.241 73.0875 152.175 73.3413C152.11 73.595 151.971 73.8236 151.775 73.9983L149.276 76.2978C149.338 76.7834 149.369 77.2723 149.368 77.7618C149.368 78.2538 149.338 78.7453 149.276 79.2334L151.775 81.5329C151.971 81.7057 152.11 81.933 152.176 82.1857C152.241 82.4383 152.23 82.7047 152.143 82.9509C151.889 83.6346 151.584 84.2982 151.231 84.9361L150.963 85.4036C150.579 86.0335 150.151 86.6354 149.683 87.2049C149.512 87.4035 149.286 87.5468 149.033 87.6165C148.781 87.6861 148.513 87.6789 148.265 87.5958L145.045 86.5763C144.267 87.1722 143.414 87.6643 142.508 88.0403L141.788 91.3439C141.735 91.6014 141.606 91.8371 141.417 92.0202C141.228 92.2034 140.989 92.3256 140.73 92.371C139.106 92.6392 137.449 92.6392 135.825 92.371C135.566 92.3256 135.326 92.2034 135.138 92.0202C134.949 91.8371 134.82 91.6014 134.767 91.3439L134.046 88.0403C133.138 87.6644 132.283 87.1723 131.502 86.5763L128.29 87.5958C128.043 87.6783 127.777 87.6851 127.525 87.6155C127.274 87.5459 127.049 87.4029 126.88 87.2049C126.409 86.6341 125.981 86.0295 125.6 85.396L125.331 84.9284C124.979 84.2917 124.671 83.6309 124.412 82.9509C124.325 82.7029 124.315 82.4346 124.382 82.1806C124.448 81.9266 124.59 81.6984 124.787 81.5252L127.286 79.2258C127.222 78.7377 127.189 78.2463 127.186 77.7541C127.189 77.2645 127.222 76.7755 127.286 76.2901L124.787 73.9907C124.59 73.8175 124.448 73.5893 124.382 73.3352C124.315 73.0812 124.325 72.813 124.412 72.565C124.671 71.885 124.979 71.2242 125.331 70.5875L125.6 70.1199C125.981 69.4864 126.409 68.8818 126.88 68.311C127.049 68.113 127.274 67.97 127.525 67.9004C127.777 67.8308 128.043 67.8376 128.29 67.9201L131.509 68.9395C132.291 68.3436 133.146 67.8515 134.054 67.4755L134.775 64.1797C134.827 63.9222 134.954 63.6862 135.141 63.5018C135.329 63.3174 135.566 63.1932 135.825 63.1449C137.451 62.869 139.112 62.869 140.738 63.1449C141.001 63.1863 141.244 63.3079 141.435 63.4932C141.625 63.6785 141.754 63.9183 141.803 64.1797L142.57 67.4755C143.476 67.8525 144.329 68.3473 145.107 68.9472L148.326 67.9201C148.575 67.8379 148.843 67.8319 149.096 67.9029C149.348 67.9739 149.574 68.1187 149.744 68.3187C150.212 68.8837 150.632 69.4861 151.001 70.1199L151.277 70.5875C151.63 71.2227 151.935 71.8838 152.189 72.565L152.143 72.5727ZM138.285 82.3607C139.195 82.3607 140.084 82.091 140.84 81.5856C141.596 81.0803 142.186 80.362 142.534 79.5217C142.882 78.6814 142.973 77.7567 142.796 76.8646C142.618 75.9725 142.18 75.153 141.537 74.5099C140.894 73.8667 140.074 73.4287 139.182 73.2512C138.29 73.0738 137.365 73.1649 136.525 73.5129C135.685 73.861 134.967 74.4505 134.461 75.2068C133.956 75.963 133.686 76.8522 133.686 77.7618C133.686 78.9815 134.171 80.1512 135.033 81.0137C135.896 81.8762 137.065 82.3607 138.285 82.3607Z" fill="#33495E"/>
<path d="M152.867 51.1418C152.815 51.3993 152.687 51.6353 152.5 51.8197C152.313 52.0041 152.075 52.1283 151.817 52.1766L148.505 52.8511C148.314 53.303 148.091 53.741 147.838 54.1618C147.589 54.5942 147.309 55.0091 147.003 55.4035L147.992 58.6381C148.07 58.8878 148.072 59.1549 147.998 59.4058C147.924 59.6568 147.778 59.8803 147.578 60.0484C147.011 60.5089 146.409 60.9241 145.777 61.2901L145.309 61.5507C144.659 61.9025 143.983 62.2024 143.286 62.4475C143.037 62.5306 142.77 62.5378 142.517 62.4682C142.264 62.3985 142.038 62.2553 141.868 62.0566L139.629 59.5348C138.654 59.6524 137.666 59.6395 136.694 59.4965L134.394 61.9569C134.218 62.1524 133.987 62.29 133.731 62.3516C133.475 62.4132 133.207 62.3958 132.961 62.3019C131.427 61.7055 130.002 60.8585 128.745 59.7954C128.547 59.6232 128.404 59.3954 128.335 59.1413C128.267 58.8872 128.276 58.6185 128.362 58.3698L129.435 55.1659C128.844 54.381 128.362 53.5198 128.002 52.6058L124.714 51.8393C124.468 51.7758 124.246 51.6431 124.073 51.457C123.9 51.2708 123.785 51.0391 123.74 50.7893C123.63 50.0611 123.574 49.3258 123.572 48.5894V48.0452C123.594 47.3175 123.671 46.5924 123.802 45.8761C123.854 45.6186 123.981 45.3826 124.168 45.1982C124.356 45.0139 124.593 44.8896 124.852 44.8413L128.163 44.1668C128.357 43.7123 128.582 43.2718 128.837 42.8485C129.087 42.4159 129.366 42.001 129.673 41.6068L128.684 38.3645C128.602 38.1159 128.597 37.8483 128.67 37.5967C128.742 37.3452 128.889 37.1213 129.09 36.9542C129.66 36.5004 130.262 36.088 130.892 35.7202L131.367 35.4596C132.014 35.1078 132.688 34.8079 133.383 34.5628C133.63 34.4777 133.898 34.4688 134.15 34.5371C134.403 34.6054 134.63 34.7478 134.801 34.946L137.046 37.4754C138.021 37.3452 139.008 37.3452 139.982 37.4754L142.281 35.0073C142.459 34.816 142.689 34.6812 142.942 34.6198C143.196 34.5585 143.462 34.5733 143.707 34.6624C145.248 35.2538 146.676 36.104 147.93 37.1765C148.129 37.3475 148.271 37.574 148.339 37.8268C148.408 38.0795 148.399 38.3469 148.314 38.5945L147.241 41.7984C147.832 42.5833 148.314 43.4444 148.674 44.3584L151.962 45.1249C152.221 45.1817 152.457 45.3152 152.639 45.508C152.82 45.7008 152.94 45.9439 152.982 46.2057C153.09 46.9341 153.149 47.6691 153.158 48.4055V48.9497C153.135 49.6774 153.058 50.4025 152.928 51.1188L152.867 51.1418ZM135.95 52.4602C136.733 52.9198 137.634 53.1377 138.54 53.0865C139.445 53.0352 140.316 52.7171 141.042 52.1722C141.767 51.6273 142.315 50.8799 142.617 50.0241C142.919 49.1684 142.961 48.2425 142.737 47.363C142.514 46.4835 142.035 45.6898 141.362 45.0816C140.688 44.4735 139.85 44.0782 138.953 43.9455C138.055 43.8127 137.138 43.9485 136.317 44.3357C135.497 44.7229 134.809 45.3442 134.341 46.1214C134.027 46.6423 133.819 47.2204 133.73 47.8221C133.641 48.4238 133.673 49.0372 133.822 49.6268C133.972 50.2163 134.237 50.7703 134.602 51.2567C134.968 51.743 135.426 52.1521 135.95 52.4602H136.012H135.95Z" fill="#E74C3C"/>
<path d="M4 63.8711H30.3517" stroke="#E74C3C" stroke-width="6.13188" stroke-linecap="round" stroke-linejoin="round"/>
<path d="M34.3989 40.9765C28.4965 40.1771 22.4894 40.7408 16.8387 42.6244C12.9881 43.904 9.45684 45.9951 6.48352 48.7563" stroke="#33495E" stroke-width="6.13188" stroke-linecap="round" stroke-linejoin="round"/>
<path d="M34.3989 86.7737C28.4953 87.5681 22.4882 86.9992 16.8387 85.1104C12.9867 83.8338 9.45482 81.7424 6.48352 78.9785" stroke="#33495E" stroke-width="6.13188" stroke-linecap="round" stroke-linejoin="round"/>
<path d="M60.9283 90.6686C57.4011 90.6686 54.2317 90.0552 51.4201 88.8283C48.6597 87.5503 46.4871 85.8122 44.9024 83.6141C43.3177 81.3649 42.4998 78.7833 42.4487 75.8695H49.8865C50.1421 78.3744 51.1645 80.4958 52.9537 82.2339C54.794 83.9208 57.4522 84.7643 60.9283 84.7643C64.2511 84.7643 66.8582 83.9464 68.7496 82.3106C70.6921 80.6236 71.6634 78.4766 71.6634 75.8695C71.6634 73.8247 71.1011 72.1634 69.9765 70.8854C68.8518 69.6074 67.446 68.6361 65.7591 67.9716C64.0722 67.307 61.7973 66.5913 58.9347 65.8246C55.4074 64.9044 52.5703 63.9843 50.4233 63.0641C48.3274 62.144 46.5126 60.7126 44.9791 58.7701C43.4966 56.7764 42.7554 54.1182 42.7554 50.7954C42.7554 47.8816 43.4966 45.3001 44.9791 43.0509C46.4615 40.8016 48.5319 39.0635 51.1901 37.8367C53.8994 36.6098 56.9921 35.9964 60.4682 35.9964C65.4779 35.9964 69.5675 37.2488 72.7369 39.7537C75.9574 42.2585 77.7722 45.5813 78.1811 49.7219H70.5132C70.2576 47.6772 69.1841 45.888 67.2927 44.3544C65.4013 42.7697 62.8964 41.9773 59.7781 41.9773C56.8643 41.9773 54.4873 42.7441 52.647 44.2777C50.8067 45.7602 49.8865 47.8561 49.8865 50.5654C49.8865 52.5079 50.4233 54.0927 51.4968 55.3195C52.6214 56.5464 53.9761 57.4921 55.5608 58.1566C57.1966 58.7701 59.4714 59.4857 62.3852 60.3037C65.9125 61.2749 68.7496 62.2462 70.8966 63.2175C73.0436 64.1376 74.8839 65.5945 76.4175 67.5882C77.9511 69.5307 78.7179 72.1889 78.7179 75.5628C78.7179 78.1699 78.0278 80.6236 76.6475 82.924C75.2673 85.2244 73.2225 87.0902 70.5132 88.5216C67.8039 89.9529 64.6089 90.6686 60.9283 90.6686Z" fill="#33495E"/>
<path d="M174.072 105.685C171.482 105.685 169.155 105.234 167.092 104.334C165.065 103.396 163.47 102.12 162.307 100.506C161.143 98.8549 160.543 96.9598 160.506 94.8207H165.966C166.153 96.6595 166.904 98.2169 168.217 99.4928C169.568 100.731 171.52 101.35 174.072 101.35C176.511 101.35 178.425 100.75 179.813 99.5491C181.239 98.3107 181.952 96.7346 181.952 94.8207C181.952 93.3196 181.539 92.1 180.714 91.1618C179.888 90.2236 178.856 89.5106 177.618 89.0228C176.379 88.5349 174.71 88.0095 172.608 87.4466C170.019 86.7712 167.936 86.0957 166.36 85.4202C164.821 84.7447 163.489 83.6939 162.363 82.2679C161.275 80.8043 160.731 78.8529 160.731 76.4137C160.731 74.2746 161.275 72.3795 162.363 70.7283C163.451 69.0771 164.971 67.8012 166.923 66.9006C168.912 65.9999 171.182 65.5496 173.734 65.5496C177.411 65.5496 180.414 66.469 182.74 68.3078C185.105 70.1467 186.437 72.5859 186.737 75.6256H181.108C180.92 74.1245 180.132 72.8111 178.744 71.6853C177.355 70.5219 175.516 69.9403 173.227 69.9403C171.088 69.9403 169.343 70.5032 167.992 71.629C166.641 72.7173 165.966 74.2559 165.966 76.2448C165.966 77.6708 166.36 78.8342 167.148 79.7348C167.973 80.6355 168.968 81.3297 170.131 81.8176C171.332 82.2679 173.002 82.7933 175.141 83.3937C177.73 84.1067 179.813 84.8197 181.389 85.5328C182.965 86.2082 184.316 87.2778 185.442 88.7413C186.568 90.1674 187.131 92.1188 187.131 94.5956C187.131 96.5094 186.624 98.3107 185.611 99.9995C184.598 101.688 183.097 103.058 181.108 104.109C179.119 105.159 176.773 105.685 174.072 105.685Z" fill="#E74C3C"/>
<path d="M171.353 57.8345H185.088V62H166.23V22.7654H171.353V57.8345Z" fill="#33495E"/>
<path d="M93.947 38.3242V83.6694C93.947 83.6694 94.1846 91.089 110.626 88.8586" stroke="#33495E" stroke-width="6.13188" stroke-linecap="round" stroke-linejoin="round"/>
<path d="M96.737 51.5686H114.611" stroke="#33495E" stroke-width="6.13188" stroke-linecap="round" stroke-linejoin="round"/>
</svg>
